<?xml version="1.0" encoding="utf-8"?>
<!-- Generator: Adobe Illustrator 16.0.0, SVG Export Plug-In . SVG Version: 6.00 Build 0)  -->
<!DOCTYPE svg PUBLIC "-//W3C//DTD SVG 1.1//EN" "http://www.w3.org/Graphics/SVG/1.1/DTD/svg11.dtd">
<svg version="1.1" xmlns="http://www.w3.org/2000/svg" xmlns:xlink="http://www.w3.org/1999/xlink" x="0px" y="0px" width="960px"
	 height="560px" viewBox="0 0 960 560" enable-background="new 0 0 960 560" xml:space="preserve">
<g id="Layer_2">
	<polyline points="74,148 551.25,148 559,135 555,135 506.5,135 509.5,131.25 486,132 486,135 483,135 480,135 476,135 476,131.75 
		471,129.75 437.75,130.5 438,127 461,126 461,124.25 437,125 437,122.75 425.875,118.75 414.5,117.5 406,121 406,127.5 411,129 
		411,130 403.125,129.5 403.5,122.75 401.5,122.5 400,119 406.5,116.5 389.5,116.75 391,122.75 382.75,121.75 383,117.25 
		378.75,115.5 375,112.75 385.25,110.25 373.5,108 371.5,91.25 370.25,108.75 360,110.5 368,113 368,123.5 363,124 363,121.25 
		348.625,120.75 348.25,115.25 361.5,113.5 348,111.75 349,109 358.75,109 357,103.119 351,106 344.75,104.25 336.5,106.75 
		340.25,108.75 329,113 337,115 337,121.75 326,124 326,131.75 321,130 320.5,122.75 321,117.25 317.25,113.5 317,104.25 323,97.75 
		317,93.75 315.5,90 299.25,87 295,97.75 291,98 291,101.5 296,105 296,116.5 293,120 293,123.75 288,124 288,120.75 270.5,120.5 
		264,123 264,115.25 263.5,108.25 261,107.25 261.5,102.994 259.5,100.5 263.75,93.75 259,92.5 259.5,89 261.25,82 262.5,76 
		261.5,73 270.5,71.75 261,70.25 255.25,65.5 252,71 243.25,71 254,73 254,76 251,76 251,79.5 252,84 250,84 250.75,87.5 254,93 
		247,93 247,96 252,101 247.25,104.5 247.5,107.5 249,109 249,120.75 247,121.5 244,116 244,109 240,109 240,115.5 229.375,114 
		234,111 218.25,111 223,115 211.5,115 205,117 205,130 198.25,130 203,128 203,122.25 198,119 185.25,119 172,124.625 149.5,125.5 
		172,127 172,130 145.236,129.936 68.749,127.5 	"/>
</g>
</svg>
