<?xml version="1.0" encoding="utf-8"?>
<!-- Generator: Adobe Illustrator 16.0.0, SVG Export Plug-In . SVG Version: 6.00 Build 0)  -->
<!DOCTYPE svg PUBLIC "-//W3C//DTD SVG 1.1//EN" "http://www.w3.org/Graphics/SVG/1.1/DTD/svg11.dtd">
<svg version="1.1" xmlns="http://www.w3.org/2000/svg" xmlns:xlink="http://www.w3.org/1999/xlink" x="0px" y="0px" width="8195px"
	 height="6061px" viewBox="0 0 8195 6061" enable-background="new 0 0 8195 6061" xml:space="preserve">
<g id="worldmap-image">
	<image overflow="visible" width="8192" height="6061" xlink:href="../images/worldmap.png"  transform="matrix(1 0 0 1 2 0)">
	</image>
</g>
<g id="provinces">
	<g id="Layer_3">
		<path fill="none" stroke="#000000" stroke-width="0.25" stroke-miterlimit="10" d="M3812.333,1743.167
			c1.466-0.175,3.777,1.566,5.137,2.213c2.152,1.023,4.289,1.371,6.162,2.808c1.551,1.191,2.597,2.322,2.7,4.34
			c0.103,1.989-0.941,3.23-1.458,4.98c-0.591,2.004-0.193,3.6-1.788,5.242c-1.78,1.833-3.385,1.005-5.646,0.737
			c-2.359-0.279-4.101,0.945-6.266,1.18c-2.435,0.263-4.056-1.232-5.833-2.667c-1.269-1.024-2.699-1.858-3.958-2.874
			c-1.363-1.1-1.313-1.978-2.042-3.438c1.457-0.039,2.834-0.877,4.266-1.025c0.713-0.074,2.136-0.208,2.846-0.007
			c0.931,0.263,1.427,1.37,2.354,1.494c0.028-0.731,0.112-1.484-0.14-2.141c-0.366-0.958-1.406-0.819-0.668-1.85
			c0.971-1.357,4.01,1.08,3.333-1.658c-0.306-1.234-2.534-1.772-1.641-3.68c0.765-1.634,2.281-1.457,2.475-3.487"/>
	</g>
	<g id="Layer_4">
		<path fill="none" stroke="#000000" stroke-width="0.25" stroke-miterlimit="10" d="M3799.333,1755.5
			c-1.685-0.263-3.493-1.032-5.245-0.67c-1.644,0.34-2.767,1.861-4.394,2.333c-2.501,0.726-2.666-0.55-3.063-2.663
			c-0.316-1.685-0.765-1.456-1.973-1.959c-0.667-0.278-1.527-0.756-2.192-0.924c-0.683-0.171-2.192-0.34-2.807,0.051
			c-0.581,0.371-0.701,1.391-1.197,2.128c-0.35,0.52-1.482,1.192-1.27,1.878c0.086,0.28,1.782,1.323,2.107,1.659
			c2.104,2.167,4.892,4.675,0.875,6.652c-1.408,0.693-2.348,1.533-3.513,2.385c-1.047,0.766-2.906,1.729-2.804,3.271
			c1.944-0.271,4.441,1.091,6.466,0.208c1.25-0.545,1.941-1.872,3.334-2.181c1.298-0.288,2.976-0.038,4.316,0.024
			c0.163,1.095-0.603,2.683,0.005,3.645c0.436,0.69,1.451,0.581,1.702,1.331c0.315,0.94-0.511,1.317-0.685,1.973
			c-0.358,1.349,0.076,2.011,0.003,3.359c-0.059,1.082-0.61,1.914-0.646,2.93c2.329,1.125,6.837,0.264,8.21-1.634
			c0.901-1.246,0.939-2.697,2.144-3.781c1.649-1.484,3.661-0.324,5.804-0.851c0.479-0.118,0.664-0.735,1.192-0.869
			c0.457-0.116,1.25,0.295,1.666,0.009c0.424-0.292,0.364-0.888,0.467-1.309c0.235-0.963-0.173-2.033-0.171-2.991
			c0.003-1.741,1.067-3.146,2.167-4.504"/>
	</g>
	<g id="Layer_5">
		<path fill="none" stroke="#000000" stroke-width="0.25" stroke-miterlimit="10" d="M3812.833,1743.167
			c-1.273,0.433-2.862-1.764-3.008-2.824c-0.191-1.378,0.614-2.893,1.342-3.973c1.61-2.386,4.762-4.652,3.691-7.874
			c-1.046,0.632-1.212,1.729-2.191,2.388c-0.852,0.572-2.121,0.674-3.04,1.121c-2.214,1.077-3.198,2.036-4.542-1.042
			c-0.393-0.898-0.508-1.818-1.077-2.628c-0.625-0.891-1.672-1.433-2.305-2.375c-0.552-0.821-0.661-1.485-1.362-2.208
			c-0.648-0.668-2.373-1.067-2.726-1.917c-0.468-1.122,1.427-4.048,1.805-5.15c0.749-2.179,1.248-3.88,2.7-5.813
			c0.831-1.104,1.969-3.351,3.047-4.049c0.94-0.609,3.041-0.764,4.204-0.822c4.108-0.204,7.797,0.133,11.096-2.508
			c0.499-0.4,0.902-1.546,1.703-1.336c0.409,0.107,1.423,2.496,1.667,3.005c0.746,1.552,1.602,3.812,1.5,5.543
			c-0.125,2.118-0.782,2.791,0.533,4.804c1.128,1.728,0.95,3.246,1.297,5.306c0.422,2.505,2.032,4.471,3.162,6.506
			c0.971,1.75,1.796,3.819,2.68,5.741c0.98,2.134,3.369,4.229,2.504,6.691c-0.297,0.843-1.305,1.104-0.983,2.414
			c0.298,1.217,1.325,1.543,1.304,3c-0.018,1.231-0.535,1.862-1.334,2.801c-1.11,1.305-1.464,1.316-3.002,1.699
			c-1.111,0.277-2.04,0.762-2.862,1.338c-0.969,0.678-1.699,0.801-2.635,1.329"/>
	</g>
	<g id="Layer_6">
		<path fill="none" stroke="#000000" stroke-width="0.25" stroke-miterlimit="10" d="M3788.5,1780.832
			c1.083,6.798-11.433,8.806-16.175,10.184c-1.531,0.445-2.485,0.597-3.812,1.441c-1.422,0.904-3.083,1.655-4.692,2.351
			c-0.958,0.414-3.764,1.213-1.954,2.667c0.798,0.641,2.858,0.083,3.775,0.533c0.615,2.451-3.307,2.209-2.199,4.695
			c1.035,2.325,5.153,0.451,6.724-0.49c-0.805,1.156-0.096,1.987,0.996,2.482c0.363-0.587,0.784-1.213,1.029-1.833
			c0.731-0.312,1.635-0.159,2.312-0.488c1.163-0.565,0.346-0.888,1.192-1.668c0.439-0.405,3.414-0.889,4.138-0.88
			c2.271,0.027,1.74,1.689,2.821,2.938c0.551,0.636,2.192,0.407,2.532,1.058c0.462,0.886-0.823,1.152-1.177,1.848
			c2.385,2.024,4.653-0.01,7.159-0.169c3.327-0.211,4.616,2.176,6.665,4.208c1.529,1.516,6.563,2.308,8.467,0.475
			c0.976-0.939,0.194-1.044,1.708-1.387c0.924-0.209,1.876-0.124,2.828-0.129c2.333-0.014,2.456-0.481,3.026-2.654
			c1.998-0.026,3.473-0.109,4.877-1.513c1.109-1.108,2.265-2.075,2.555-3.691c0.563-3.145-2.954-6.798-4.455-9.38
			c-1.136-1.954-2.8-3.812-4.17-5.437c-1.253-1.486-3.181-2.323-4.462-3.696c-1.524-1.634-0.568-3.042,0-4.746
			c0.308-0.924,0.931-4.031-0.542-4.05"/>
	</g>
	<g id="Layer_7">
		<path fill="none" stroke="#000000" stroke-width="0.25" stroke-miterlimit="10" d="M3823.5,1762.332
			c2.489,0.483,4.301,2.75,6.479,3.362c0.065,1.422-0.403,3.061-0.324,4.304c0.128,2.005,0.617,1.572-0.822,3.355
			c-1.135,1.406-2.572,3.825-2.674,5.648c-0.067,1.204,1.26,2.399,0.844,3.659c-0.908,2.755-5.084,2.147-7.295,2.038
			c-2.565-0.127-4.354,4-6.708,1.967"/>
	</g>
	<g id="Layer_8">
		<path fill="none" stroke="#000000" stroke-width="0.25" stroke-miterlimit="10" d="M3822.167,1702.001
			c1.766,0.116,3.86-1.344,5.324-2.157c1.769-0.981,3.236-1.413,5.185-1.75c1.686-0.292,3.732-0.718,5.445-1.138
			c0.668-0.164,1.684-0.62,2.379-0.621c1.417-0.003,1.035,0.136,1.5,1.504c0.435,1.281,0.632,0.96,1.43,1.987
			c0.616,0.794,0.625,1.593,0.904,2.513c0.538,1.777,1.727,3.533,2.572,5.231c0.592,1.188,0.833,2.49,1.418,3.661
			c0.457,0.912,1.314,1.491,1.813,2.268c1.258,1.954-0.17,3.23,2.39,3.503c1.95,0.208,2.882,0.897,4.48,1.653
			c1.224,0.58,3.837,0.597,4.504,2.171c1.465,3.462-1.753,6.623-4.505,7.841c-1.735,0.768-3.781,0.162-5.512,0.996
			c-1.884,0.908-3.228,1.776-4.55,3.476c-1.117,1.436-2.779,2.103-4.612,2.362c-1.627,0.23-5.002-0.495-4.729,2.176
			c-0.566-0.18-1.161-0.238-1.771-0.176"/>
	</g>
	<g id="Layer_10">
		<path fill="none" stroke="#000000" stroke-width="0.25" stroke-miterlimit="10" d="M3861.667,1721.5
			c0.658,0.002,1.672-0.411,2.301-0.178c0.676,0.25,1.168,1.434,1.658,2.002c0.98,1.135,2.254,1.819,3.046,3
			c0.821,1.224,1.134,2.796,2.356,3.671c1.111,0.796,3.382,0.812,3.954,2.313c-1.245,0.459-3.055,0.171-3.316,1.69
			c-0.177,1.028,1.11,3.631,1.704,4.463c0.574,0.804,1.58,1.144,2.228,1.877c0.547,0.619,0.635,1.296,1.234,1.996
			c1.046,1.224,2.992,2.097,2.645,4.113c-3.973,0.753-7.721-3.466-11.637-3.616c-2.108-0.081-3.946,0.295-5.841,1.157
			c-1.067,0.485-1.129,0.777-2.509,0.843c-1.045,0.05-2.106,0-3.153,0c-3.89,0-7.336-0.714-11.143,0.374
			c-1.509,0.431-3.013,1.254-4.541,1.459c-1.623,0.217-2.938-0.34-4.488-0.833"/>
	</g>
	<g id="Layer_9">
		<path fill="none" stroke="#000000" stroke-width="0.25" stroke-miterlimit="10" d="M3829.667,1771.999
			c2.784,1.435,6.448,3.165,9.579,3.638c3.298,0.499,2.722-1.786,4.169-3.807c0.536-0.75,1.549-1.415,2.39-1.761
			c0.708-0.292,1.563-0.123,2.196-0.39c2.176-0.919,0.975-3.436,1.333-5.347c0.626-3.333,6.752-2.994,6.133-6.869
			c-0.354-2.218-1.794-4.517-3.597-5.847c-1.207-0.89-2.786-1.55-4.099-2.271c-0.536-0.295-2.002-0.703-2.288-1.338
			c-0.289-0.643,0.263-1.757,0.158-2.492c-0.355-0.019-0.655-0.198-0.975-0.183"/>
	</g>
	<g id="Layer_11">
		<path fill="none" stroke="#000000" stroke-width="0.25" stroke-miterlimit="10" d="M3868.833,1742.999
			c2.489,3.298,6.079,5.205,9.634,7.171c2.89,1.598,6.117,3.907,5.544,7.817c-0.26,1.775-0.559,4.365-1.933,5.682
			c-1.474,1.412-3.655,1.805-5.041,3.276c-1.056,1.12-0.556,1.475-2.496,1.684c-1.434,0.154-2.898,0.205-4.347,0.204
			c-2.217-0.001-3.905-0.561-6.028-1.166c-1.449-0.413-2.936-0.891-4.452-0.838c-1.587,0.056-2.297,0.96-3.531,1.517
			c-1.945,0.875-4.529-0.015-6.685-0.013"/>
	</g>
</g>
</svg>
