<?xml version="1.0" encoding="utf-8"?>
<!-- Generator: Adobe Illustrator 16.0.0, SVG Export Plug-In . SVG Version: 6.00 Build 0)  -->
<!DOCTYPE svg PUBLIC "-//W3C//DTD SVG 1.1//EN" "http://www.w3.org/Graphics/SVG/1.1/DTD/svg11.dtd">
<svg version="1.1" xmlns="http://www.w3.org/2000/svg" xmlns:xlink="http://www.w3.org/1999/xlink" x="0px" y="0px" width="8195px"
	 height="6061px" viewBox="0 0 8195 6061" enable-background="new 0 0 8195 6061" xml:space="preserve">
<g id="worldmap-image">
	<image overflow="visible" width="8192" height="6061" xlink:href="../images/worldmap.png"  transform="matrix(1 0 0 1 2 0)">
	</image>
</g>
<g id="provinces">
	<g id="Layer_3">
		<path fill="none" stroke="#000000" stroke-width="0.25" stroke-miterlimit="10" d="M3812.333,1743.167
			c1.466-0.175,3.777,1.566,5.137,2.213c2.151,1.023,4.289,1.371,6.162,2.808c1.551,1.191,2.597,2.322,2.7,4.34
			c0.103,1.989-0.941,3.23-1.458,4.98c-0.591,2.004-0.192,3.6-1.787,5.242c-1.78,1.833-3.385,1.005-5.646,0.737
			c-2.359-0.279-4.101,0.946-6.267,1.18c-2.435,0.264-4.056-1.232-5.833-2.667c-1.269-1.024-2.699-1.858-3.958-2.874
			c-1.362-1.1-1.313-1.978-2.042-3.438c1.457-0.039,2.834-0.877,4.266-1.025c0.713-0.073,2.136-0.208,2.846-0.007
			c0.931,0.262,1.427,1.37,2.354,1.494c0.028-0.731,0.112-1.484-0.14-2.141c-0.366-0.958-1.406-0.819-0.669-1.85
			c0.972-1.357,4.01,1.08,3.333-1.658c-0.306-1.234-2.534-1.772-1.641-3.68c0.764-1.634,2.281-1.456,2.474-3.487"/>
	</g>
	<g id="Layer_4">
		<path fill="none" stroke="#000000" stroke-width="0.25" stroke-miterlimit="10" d="M3799.333,1755.5
			c-1.685-0.263-3.493-1.032-5.245-0.67c-1.644,0.34-2.767,1.861-4.394,2.333c-2.501,0.726-2.666-0.55-3.063-2.663
			c-0.316-1.685-0.765-1.456-1.973-1.959c-0.667-0.278-1.527-0.756-2.192-0.924c-0.683-0.171-2.192-0.34-2.807,0.051
			c-0.581,0.371-0.701,1.391-1.197,2.128c-0.35,0.52-1.482,1.192-1.271,1.878c0.087,0.28,1.782,1.323,2.108,1.659
			c2.104,2.167,4.892,4.675,0.875,6.652c-1.408,0.693-2.348,1.533-3.513,2.385c-1.047,0.766-2.906,1.729-2.804,3.271
			c1.944-0.271,4.441,1.091,6.466,0.208c1.249-0.545,1.941-1.872,3.334-2.181c1.297-0.288,2.976-0.038,4.316,0.024
			c0.163,1.095-0.603,2.683,0.005,3.646c0.436,0.69,1.451,0.581,1.702,1.33c0.315,0.94-0.511,1.318-0.685,1.973
			c-0.358,1.349,0.076,2.01,0.003,3.359c-0.059,1.082-0.61,1.914-0.646,2.93c2.329,1.125,6.837,0.264,8.21-1.634
			c0.901-1.246,0.938-2.697,2.144-3.781c1.649-1.484,3.661-0.324,5.804-0.851c0.479-0.118,0.664-0.735,1.192-0.869
			c0.457-0.116,1.25,0.295,1.666,0.009c0.424-0.292,0.364-0.888,0.467-1.309c0.235-0.963-0.172-2.033-0.171-2.991
			c0.004-1.741,1.067-3.146,2.167-4.504"/>
	</g>
	<g id="Layer_5">
		<path fill="none" stroke="#000000" stroke-width="0.25" stroke-miterlimit="10" d="M3812.833,1743.167
			c-1.273,0.433-2.862-1.764-3.008-2.824c-0.191-1.378,0.614-2.892,1.342-3.973c1.61-2.386,4.762-4.651,3.691-7.874
			c-1.046,0.632-1.212,1.729-2.191,2.388c-0.852,0.572-2.121,0.673-3.04,1.12c-2.214,1.077-3.198,2.036-4.542-1.042
			c-0.393-0.898-0.508-1.818-1.077-2.628c-0.625-0.891-1.672-1.433-2.305-2.375c-0.552-0.82-0.661-1.485-1.363-2.208
			c-0.647-0.668-2.372-1.067-2.726-1.917c-0.468-1.122,1.427-4.048,1.805-5.15c0.748-2.179,1.248-3.88,2.7-5.813
			c0.831-1.104,1.969-3.351,3.047-4.049c0.939-0.609,3.041-0.764,4.204-0.822c4.108-0.204,7.797,0.133,11.096-2.508
			c0.499-0.399,0.902-1.546,1.703-1.335c0.408,0.107,1.423,2.495,1.667,3.005c0.745,1.553,1.602,3.812,1.5,5.544
			c-0.125,2.118-0.782,2.791,0.533,4.804c1.128,1.728,0.95,3.246,1.297,5.306c0.422,2.505,2.032,4.471,3.162,6.506
			c0.971,1.75,1.796,3.819,2.68,5.741c0.98,2.134,3.369,4.229,2.504,6.692c-0.297,0.843-1.305,1.104-0.983,2.413
			c0.298,1.217,1.325,1.543,1.304,3c-0.018,1.231-0.535,1.862-1.334,2.801c-1.11,1.304-1.464,1.315-3.002,1.699
			c-1.111,0.277-2.04,0.762-2.862,1.338c-0.969,0.678-1.699,0.802-2.635,1.329"/>
	</g>
	<g id="Layer_6">
		<path fill="none" stroke="#000000" stroke-width="0.25" stroke-miterlimit="10" d="M3788.5,1780.832
			c1.082,6.798-11.433,8.806-16.175,10.184c-1.531,0.445-2.485,0.597-3.812,1.441c-1.422,0.904-3.083,1.655-4.692,2.351
			c-0.958,0.414-3.764,1.213-1.954,2.667c0.798,0.641,2.858,0.083,3.775,0.533c0.615,2.451-3.307,2.209-2.199,4.695
			c1.035,2.325,5.153,0.451,6.724-0.49c-0.805,1.156-0.096,1.987,0.996,2.482c0.363-0.587,0.784-1.213,1.029-1.833
			c0.731-0.312,1.635-0.159,2.312-0.487c1.163-0.565,0.346-0.888,1.192-1.669c0.439-0.405,3.414-0.889,4.138-0.88
			c2.272,0.027,1.74,1.689,2.821,2.938c0.551,0.636,2.192,0.406,2.532,1.058c0.462,0.886-0.823,1.152-1.178,1.848
			c2.385,2.024,4.653-0.01,7.159-0.169c3.326-0.211,4.616,2.176,6.665,4.208c1.529,1.516,6.563,2.308,8.467,0.475
			c0.976-0.939,0.194-1.044,1.708-1.387c0.924-0.209,1.876-0.124,2.828-0.129c2.333-0.014,2.455-0.481,3.026-2.654
			c1.998-0.026,3.473-0.109,4.877-1.513c1.109-1.108,2.265-2.075,2.555-3.691c0.563-3.145-2.954-6.798-4.455-9.38
			c-1.136-1.954-2.8-3.812-4.17-5.437c-1.253-1.486-3.182-2.323-4.462-3.696c-1.524-1.634-0.568-3.041-0.001-4.746
			c0.308-0.924,0.932-4.031-0.542-4.05"/>
	</g>
	<g id="Layer_7">
		<path fill="none" stroke="#000000" stroke-width="0.25" stroke-miterlimit="10" d="M3819.708,1784.699
			c-1.708-0.084-2.822,1.512-4.222,2.202c-1.842,0.907-2.337-0.423-3.56-1.664c-0.627-0.637-2.292-1.571-2.972-2.153
			c-0.624-0.534-1.448-1.347-1.621-2.098c-0.184-0.795,0.236-1.685,0.494-2.398c0.542-1.498,1.017-1.994,0.744-4.01
			c-0.074-0.546-0.542-0.948-0.746-1.321c-0.17-0.31-0.077-0.821-0.075-1.173c0.005-0.826-0.221-1.535-0.25-2.337
			c-0.034-0.944,0.38-1.404,0.666-2.144c0.31-0.8,0.413-1.385,1.109-2.084c0.882-0.886,2.225-0.581,4.667-1.543
			c1.702-0.671,3.289-0.598,4.979-0.141c1.079,0.292,1.942,0.039,2.879-0.196c0.904-0.228,1.357-1.183,2.096-1.213
			c1.009-0.041,2.406,1.17,3.193,1.699c0.243,0.163,2.891,1.573,2.891,1.571c0.064,1.422-0.403,3.061-0.324,4.303
			c0.128,2.005,0.617,1.572-0.822,3.356c-1.135,1.407-2.572,3.825-2.674,5.648c-0.067,1.204,1.26,2.399,0.844,3.659
			C3826.095,1785.416,3821.919,1784.808,3819.708,1784.699z"/>
	</g>
	<g id="Layer_8">
		<path fill="none" stroke="#000000" stroke-width="0.25" stroke-miterlimit="10" d="M3822.166,1702.001
			c1.767,0.116,3.86-1.344,5.325-2.157c1.768-0.981,3.236-1.413,5.185-1.75c1.686-0.292,3.731-0.718,5.445-1.138
			c0.668-0.164,1.684-0.62,2.379-0.621c1.417-0.003,1.035,0.136,1.5,1.504c0.435,1.281,0.632,0.96,1.43,1.987
			c0.616,0.794,0.625,1.593,0.904,2.513c0.538,1.777,1.728,3.533,2.572,5.231c0.592,1.188,0.833,2.49,1.418,3.661
			c0.457,0.912,1.314,1.491,1.813,2.268c1.258,1.954-0.17,3.23,2.39,3.503c1.95,0.208,2.882,0.897,4.48,1.653
			c1.224,0.58,3.837,0.598,4.504,2.171c1.465,3.462-1.754,6.623-4.505,7.841c-1.735,0.769-3.781,0.162-5.512,0.996
			c-1.884,0.908-3.228,1.777-4.551,3.476c-1.117,1.436-2.778,2.103-4.612,2.362c-1.627,0.23-5.002-0.495-4.728,2.176
			c-0.566-0.18-1.162-0.238-1.772-0.176"/>
	</g>
	<g id="Layer_10">
		<path fill="none" stroke="#000000" stroke-width="0.25" stroke-miterlimit="10" d="M3861.666,1721.5
			c0.658,0.002,1.673-0.411,2.301-0.178c0.677,0.25,1.168,1.434,1.659,2.002c0.98,1.135,2.253,1.818,3.046,3
			c0.821,1.224,1.135,2.796,2.356,3.672c1.111,0.795,3.382,0.812,3.954,2.313c-1.245,0.459-3.055,0.172-3.316,1.69
			c-0.177,1.028,1.11,3.632,1.704,4.463c0.574,0.804,1.58,1.144,2.229,1.877c0.548,0.619,0.635,1.296,1.234,1.996
			c1.046,1.224,2.992,2.097,2.646,4.114c-3.973,0.753-7.722-3.466-11.638-3.617c-2.107-0.081-3.945,0.296-5.841,1.157
			c-1.067,0.486-1.129,0.777-2.509,0.843c-1.046,0.05-2.106,0-3.153,0c-3.89,0-7.336-0.714-11.143,0.374
			c-1.509,0.431-3.013,1.254-4.541,1.459c-1.623,0.217-2.938-0.34-4.488-0.833"/>
	</g>
	<g id="Layer_9">
		<path fill="none" stroke="#000000" stroke-width="0.25" stroke-miterlimit="10" d="M3829.666,1771.999
			c2.785,1.435,6.449,3.165,9.579,3.638c3.298,0.499,2.722-1.786,4.169-3.807c0.536-0.75,1.549-1.415,2.39-1.761
			c0.708-0.292,1.563-0.123,2.196-0.39c2.176-0.92,0.975-3.436,1.333-5.347c0.626-3.334,6.752-2.994,6.133-6.869
			c-0.354-2.218-1.794-4.517-3.597-5.847c-1.207-0.89-2.786-1.55-4.099-2.271c-0.536-0.295-2.002-0.703-2.288-1.338
			c-0.289-0.643,0.263-1.757,0.158-2.492c-0.355-0.018-0.655-0.197-0.976-0.183"/>
	</g>
	<g id="Layer_11">
		<path fill="none" stroke="#000000" stroke-width="0.25" stroke-miterlimit="10" d="M3868.833,1742.999
			c2.489,3.298,6.079,5.205,9.633,7.171c2.891,1.598,6.117,3.906,5.545,7.816c-0.26,1.775-0.559,4.365-1.933,5.682
			c-1.474,1.412-3.655,1.805-5.041,3.276c-1.056,1.12-0.556,1.475-2.496,1.684c-1.434,0.154-2.897,0.205-4.347,0.204
			c-2.217,0-3.905-0.561-6.028-1.166c-1.449-0.413-2.936-0.891-4.452-0.838c-1.587,0.056-2.297,0.961-3.531,1.517
			c-1.945,0.875-4.529-0.015-6.685-0.013"/>
	</g>
	<g id="Layer_15">
		<path fill="none" stroke="#000000" stroke-width="0.25" stroke-miterlimit="10" d="M3821.333,1800.486
			c1.62,2.903,3.994,5.439,5.75,8.33c1.037,1.706,0.684,2.709,1.108,4.503c0.266,1.128,1.225,2.496,1.768,3.529
			c1.46,2.779,2.376,5.719,2.707,8.842c0.135,1.275-0.002,2.506,0.038,3.768c0.055,1.733,0.565,1.865,1.938,2.895
			c0.721,2.534-3.026,1.152-4.128,0.72c-2.53-0.989-3.645-1.438-5.401,0.881c-0.656,0.865-0.527,1.424-1.771,1.379
			c-1.198-0.043-2.485-1.418-3.467-2.022c-1.98-1.218-3.938-2.342-5.42-4.158c-3.215-3.938-5.129-10.089-3.996-14.987
			c0.156-0.676,0.124-1.944,0.531-2.493c0.56-0.755,2.459-0.992,3.25-1.761c1.059-1.029,0.536-1.542,1.083-2.591
			c0.438-0.84,1.233-0.926,1.511-1.834"/>
	</g>
	<g id="Layer_16">
		<path fill="none" stroke="#000000" stroke-width="0.25" stroke-miterlimit="10" d="M3810.333,1816.153
			c-5.289,2.614-11.207-0.324-16.475-0.787c-2.209-0.195-6.82-1.061-7.862,1.621c-0.336,0.865,0.302,2.089-0.029,2.976
			c-0.305,0.815-1.394,1.61-1.991,2.186c0.281,0.559,0.543,1.046,1,1.367c0.493,1.739,1.932,3.813,2.858,5.468
			c0.559,0.997,1.555,1.918,1.974,3.015c0.342,0.898,0.249,2.081,0.554,2.989c0.608,1.814,1.397,3.56,1.972,5.35
			c0.487,1.517,0.239,3.679,1.883,4.362c0.465,0.192,2.281,0.367,2.754,0.121c1.015-0.53,0.559-1.105,0.695-2.333
			c0.137-1.222,0.313-1.568,1.111-2.363c1.518-1.513,1.632-1.617,1.881-3.662c0.09-0.741,0.122-2.416,0.601-3.018
			c0.63-0.79,2.252-0.896,3.065-1.274c1.092-0.507,1.452-0.688,2.639-0.846c0.995-0.133,2.474,0.019,3.41-0.326
			c1.177-0.432,2.663-1.374,3.459-2.511"/>
	</g>
	<g id="Layer_17">
		<path fill="none" stroke="#000000" stroke-width="0.25" stroke-miterlimit="10" d="M3784.333,1822.153
			c-1.661,0-3.524,0.29-4.979-0.437c0.044,0.779-0.385,1.243-0.521,1.937c-0.133,0.681,0.033,1.691-0.196,2.37
			c-0.632,1.866-3.083,3.504-4.109,5.302c-0.96,1.68-1.63,3.012-3.832,2.996c-0.559-0.005-1.694-0.58-2.029-0.511
			c-0.716,0.144-1.993,1.585-2.468,2.177c-1.306,1.629-0.438,3.334-2.195,4.838c-1.357,1.162-3.025,3.16-4.708,3.497
			c-1.51,0.301-3.351-0.258-4.796,0.33c-1.203,0.489-2.178,2.683-1.471,4.149c1.164,2.417,1.99-0.28,2.759-1.146
			c1.637-1.844,4.058-0.793,5.008,0.971c0.861,1.601,1.798,3.959,3.968,2.528c1.617-1.066,1.438-3.798,2.771-5.215
			c0.857-0.911,2.107-0.456,3.124-0.947c1.087-0.526,0.951-1.026,1.838-1.935c1.473-1.51,3.309-1.673,5.216-1.194
			c2.333,0.586,3.848-0.095,6.162-0.373c0.768-0.092,1.416-0.512,2.293-0.34c1.136,0.222,1.91,1.307,3.037,1.502
			c1.048,0.181,2.219-0.183,2.962-0.832"/>
	</g>
	<g id="Layer_23">
		<path fill="none" stroke="#000000" stroke-width="0.25" stroke-miterlimit="10" d="M3741,1735
			c2.196-1.106,6.223-0.518,7.993-2.179c0.792-0.742,0.763-2.045,1.107-3.046c0.523-1.517,1.65-2.173,3.03-3
			c1.388-0.832,4.01-1.281,4.245-3.053c0.139-1.051-0.478-1.564-0.625-2.463c-0.257-1.57,0.634-1.354,1.855-1.394
			c0.091-1.924-1.183-3.769-2.547-5.159c-1.741-1.775-1.95-0.55-3.687-0.078c-1.911,0.52-1.708-1.491-0.844-2.459
			c1.394-1.561,1.702-2.115-0.144-3.319c-1.284-0.837-2.536-1.452-3.394-2.844c-0.736-1.194-1.024-2.163-2.735-1.884
			c-1.85,0.302-2.876,2.154-4.125,3.34c-1.142,1.084-2.6,1.52-3.661,2.69c-1.124,1.241-1.153,2.123-1.585,3.722
			c-0.225,0.832-0.65,1.377-0.76,2.25c-0.086,0.687,0.041,1.433-0.038,2.1c-1.157,0.063-3.322,1.491-4.313,2.084
			c-1.774,1.062-2.331,2.238-2.49,4.099c-0.112,1.305,0.087,1.433,1.032,2.595c0.712,0.876,0.933,2.098,1.836,2.871
			c0.896,0.766,1.353,0.646,1.722,1.876c0.533,1.776,0.761,1.611,2.628,1.75c1.146,0.085,5.115,2.409,5.622,1.5"/>
	</g>
	<g id="Layer_24">
		<path fill="none" stroke="#000000" stroke-width="0.25" stroke-miterlimit="10" d="M3728.256,1725.438
			c-0.818-1.313-2.396-2.568-3.305-2.808c-1.023-0.271-1.371,1.845-1.822,2.502c-0.83,1.208-0.84,2.607-2.025,3.646
			c-1.479,1.296-1.742,1.848-3.895,1.848c-1.284,0-3.017,0.8-4.212,0.255c-1.295-0.59-1.298-1.717-2.904-1.88
			c-1.676-0.17-2.983,0.206-3.978-1.5c-0.834-1.432-1.001-2.531-2.525-3.59c-0.811-0.563-4.875-2.006-3.44-3.321
			c0.279-0.256,1.656-0.224,2.012-0.275c0.726-0.105,1.331-0.251,1.979-0.629c1.127-0.657,1.911-1.777,3.218-2.206
			c0.216-0.923-0.606-1.848-1.468-1.991c0.012-0.844,0.963-1.138,1.25-1.841c0.857-0.247,1.642-0.137,2.481-0.488
			c1.019-0.426,1.782-1.261,2.649-1.787c1.053-0.64,2.312-0.466,3.109-1.496c0.602-0.778,0.944-1.967,1.338-2.881
			c0.278-0.645,0.245-1.764,0.526-2.272c0.508-0.918,1.641-0.515,2.63-0.872c0.744-0.269,1.172-0.811,2.006-0.853
			c0.769-0.039,1.617,0.269,2.478,0.243c-0.169-1.097,0.25-2.397,1.229-3.024c1.46-0.936,2.286,0.716,3.544,0.417
			c0.426-0.101,1.089-1.011,1.512-1.261c0.797-0.473,1.941-0.826,2.865-0.996c1.322-0.243,3.01,0.379,4.334-0.144
			c0.989-0.39,1.916-1.55,2.901-1.863c1.46-0.464,3.131,0.008,3.917,1.104c1.079,1.501,0.353,1.656-0.202,3.024
			c-0.573,1.414,0.955,2.019,0.859,3.128c-0.028,0.328,0.04,0.412-0.319,0.625"/>
	</g>
	<g id="Layer_13" display="none">
		<path display="inline" fill="none" stroke="#000000" stroke-width="0.25" stroke-miterlimit="10" d="M2478.733,1982.766
			c-1.407,0.61-2.989,1.079-4.362,1.734c-2.836,1.354-5.241,3.027-7.837,4.747c-3.08,2.039-6.486,4.068-9.031,6.771
			c-0.987,1.048-1.92,1.998-3.031,2.719c-1.328,0.862-1.473,1.659-2.213,2.943c-0.852,1.478-1.858,2.263-2.265,3.944
			c-0.338,1.395,0.242,2.648-0.17,4.022c-1.02,3.396-0.294,6.984,0.524,10.52c0.285,1.23,1.166,3.271,2.721,2.094
			c1.173-0.888,1.021-4.121,2.903-2.82c1.694,1.172,0.443,2.78,1.051,4.345c0.298,0.769,0.997,1.083,1.223,1.94
			c0.173,0.657,0.135,1.336,0.258,2.001c0.304,1.648,1.336,2.236,2.997,2.152c2.398-0.121,2.964-1.209,4.059-3.234
			c0.334-0.618,0.925-1.326,1.316-1.987c0.43-0.728,0.486-1.69,0.9-2.318c0.835-1.267,3.317-0.635,4.672-1.363
			c1.834-0.986,3.48-2.145,5.334-3.128c1.62-0.86,3.082-1.979,3.968-3.59c0.885-1.609,1.579-2.927,2.91-4.226
			c1.732-1.688,3.489-2.178,4.084-4.665c0.502-2.1,0.272-5.907,3.538-6.098c1.184-0.068,1.705,1.657,2.841,1.131
			c1.268-0.588,0.462-2.635,2.229-2.381c0.58,1.54,1.177,1.994,2.969,2.356c0.775,0.157,2.383-0.092,3.058,0.243
			c0.576,0.286,1.043,2.087,2,1.896c1.072-0.213,1.456-3.875,1.248-4.885c-0.353-1.71-2.346-1.987-3.667-2.667
			c-1.923-0.989-3.382-2.516-5.113-3.777c-1.452-1.059-2.597-2.315-3.997-3.434c-1.284-1.026-2.691-1.875-4.026-2.829
			c-1.36-0.972-2.334-2.243-3.589-3.289C2484.113,1979.866,2480.892,1981.831,2478.733,1982.766z"/>
	</g>
	<g id="Layer_14" display="none">
		<path display="inline" fill="none" stroke="#000000" stroke-width="0.25" stroke-miterlimit="10" d="M2505.938,1996.25
			c-0.66-0.064-1.41-0.779-1.832-1.076c-0.673-0.474-1.791-0.528-2.446-0.996c-1.729-1.239-3.273-2.589-4.96-3.85
			c-2.88-2.155-5.437-4.656-8.249-6.908c-0.276-0.221-0.97-0.653-0.994-0.972c0.664-0.118,1.272-0.078,1.898,0.111
			c0.76,0.229,1.369,0.834,2.188,0.618c0.422-0.11,0.809-0.455,1.21-0.62c0.503-0.208,1.103-0.354,1.615-0.563
			c0.912-0.373,1.744-0.823,2.73-1.042c0.39-0.086,0.629-0.179,0.976-0.348c0.589-0.288,1.352-0.486,1.904-0.795
			c0.36-0.202,0.56-0.393,0.986-0.498c0.463-0.114,0.993-0.176,1.471-0.186c1.411-0.028,3.131,0.172,4.39-0.467
			c1.061-0.539,1.976-1.442,2.923-2.064c1.122-0.736,2.441-1.427,3.695-1.934c1.112-0.449,2.377-0.63,3.453-1.183
			c1.489-0.765,2.711-1.914,3.697-3.211c0.454-0.597,0.936-1.356,1.516-1.78c0.605-0.442,1.422-0.447,2.11-0.224
			c1.971,0.638,3.982,0.824,6.068,1.022c2.298,0.218,4.344-0.431,6.229-1.736c0.974-0.674,2.446-2.829,3.568-3.215
			c0.974-0.335,1.156,2.871,1.833,3.667c0.557,0.654,0.686-0.105,1.456,0.317c0.219,0.119,0.666,0.265,0.905,0.359
			c0.355,0.142,0.76,0.376,1.094,0.498c0.693,0.253,1.571,0.14,2.253,0.263c0.824,0.15,2.454-0.698,3.292-0.521
			c0.738,0.157,3.719,4.283,4.078,4.917c0.857,1.512,7.01,3.746,6.422,5.166c-0.738,1.782-8.536,2.521-10.667,3.5
			c-3.29,1.512-5.808,1.095-8.417,3.167c-1.427,1.133-5.308,3.12-6.953,3.975c-2.048,1.065-4.536,1.65-6.76,2.069
			c-0.956,0.181-1.842,0.232-2.76,0.558c-1.038,0.369-2.12,0.767-3.19,0.998c-2.045,0.442-3.985,0.671-6.111,0.671
			c-1.254,0-2.504-0.038-3.75,0.094c-0.867,0.091-1.455,0.536-2.17,0.984c-0.623,0.391-1.145,0.88-1.762,1.264
			c-0.535,0.333-0.938,0.46-1.567,0.346c-0.412-0.076-0.846-0.411-1.311-0.375"/>
	</g>
	<g id="Layer_18">
		<path fill="none" stroke="#000000" stroke-width="0.25" stroke-miterlimit="10" d="M3827.333,1888.312
			c-1.894-1.172-4.372,0.042-6,1c-1.704,1.004-3.188,3.529-4.929,1.592c-1.264-1.407-1.574-3.442-3.026-4.759
			c-1.132-1.025-3.534-3.088-4.897-3.629c-1.458-0.578-4.768-0.543-6.285-0.074c-0.795,0.246-1.655,0.666-2.199,1.333
			c-0.682,0.835-0.381,0.615-0.663,1.7c-0.283,1.088,0.106,1.326-1.171,1.809c-0.746,0.281-2.388,0.101-3.162,0.027
			c-0.961-0.092-1.8-0.499-2.825-0.334c-1.128,0.18-1.76,0.751-3.045,0.686c-2.448-0.124-5.591-0.972-8.101,0.016
			c-1.028,0.405-2.133,0.961-3.237,1.381c-0.988,0.375-2.261,1.028-3.049,1.757c-1.608,1.488-2.821,3.874-0.385,4.793
			c1.869,0.705,5.344,1.377,7.109,0.053c0.12,1.878-2.354,3.387-4.059,3.149c0.558-0.004,1.212-0.086,1.768,0.009
			c0.21,0.036,0.294-0.314,0.612-0.195c0.328,0.124,0.519,0.64,0.679,0.695c1.246,0.434,2.821,1.521,4.328,2.328
			c-0.257,1.145-3.221,1.436-4.301,1.497c-1.445,0.083-4.043-0.426-5.127,0.713c-1.881,1.974,1.64,1.781,2.799,2.121
			c2.238,0.657,1.813,2.943,3.024,4.341c0.021,0.024,1.031,0.462,1.142,0.53c0.178,0.11,0.12,0.665,0.368,0.799
			c0.566,0.307,1.956,0.538,2.633,0.341c1.574-0.458,2.249-2.689,4.164-2.513c1.094,0.1,1.816,1.423,2.841,1.846
			c0.52,0.214,1.733,0.523,2.291,0.663c0.948,0.238,2.022,0.065,2.707,0.531c0.794,0.541,0.598,1.584,1.969,1.315
			c1.165,4.634,5.562-0.107,7.44,2.187c0.636,0.775,0.728,1.71,1.227,2.592c0.172,0.304,0.08,0.839,0.488,1.045
			c0.954,0.48,0.407-0.149,1.022-0.48c1.166-0.628,3.172-3.09,4.55-1.426c1.241-0.239,2.292,0.05,3.442,0.203
			c-0.001-1.43,1.193-2.771,1.688-4.012c0.765-1.921,1.048-4.076,1.343-6.166c0.326-2.311,1.461-4.274,2.192-6.481
			c0.534-1.609,0.822-3.406,1.161-5.092c2.123-0.411,3.094-5.342,4.3-6.865c-0.281-0.102-0.384-0.262-0.658-0.358"/>
	</g>
	<g id="Layer_19">
		<path fill="none" stroke="#000000" stroke-width="0.25" stroke-miterlimit="10" d="M3817.666,1917.81
			c1.466-0.074,2.77,1.296,3.545,2.463c0.364,0.547,0.731,1.18,0.834,1.915c0.169,1.209-0.734,1.555-0.727,2.482
			c0.01,1.36,2.799,1.744,4.178,2.261c0.778,0.292,5.663,1.547,3.174,2.666c1.957,0.672,5.805,1.167,4.663,4.38
			c-0.797,2.241-4.334,0.512-5.674-0.612c0.043,1.874,2.248,3.317,3.178,4.691c0.94,1.389,0.795,3.44,2.169,4.771
			c0.609,0.591,1.413,0.63,2.008,1.312c0.557,0.638,0.869,2.237,1.474,2.687c0.481,0.357,1.621,0.491,2.175,0.693
			c0.855,0.313,1.527,0.434,2.45,0.653c0.908,0.216,1.64,0.932,2.567,0.484c0.563-0.272,1.232-1.884,1.658-2.428
			c1.346-1.719,1.907-3.402,4.158-3.584c2.64-0.214,7.045-1.288,8.472-3.704c0.479-0.813,0.144-1.453,0.349-2.296
			c0.164-0.676,0.819-1.363,1.021-1.996c0.949-2.997-2.522-5.985-4.269-8.399c-3.487-4.817-5.703-9.435-11.821-10.766
			c-4.606-1.002-7.972-3.812-11.775-6.506c-1.896-1.343-3.722-1.873-5.772-2.791c-1.363-0.611-2.603-1.474-4.033-1.875"/>
	</g>
	<g id="Layer_20">
		<path fill="none" stroke="#000000" stroke-width="0.25" stroke-miterlimit="10" d="M3827.5,1888.643
			c1.345-0.135,3.063,0.22,4.341,0.487c0.215-1.278,1.453-2.379,2.664-2.487c1.817-0.162,1.541,0.995,2.363,1.962
			c0.942,1.109,1.758,0.894,3.092,0.7c0.506-0.074,1.616-0.206,2.016-0.483c0.416-0.289,0.512-1.075,1.167-1.377
			c0.701-2.482-1.287-4.672-0.962-7.276c1.997-0.096,4.151-0.198,6.144-0.025c1.675,0.145,1.805,0.372,2.531,1.887
			c0.382,0.797,1.006,1.652,1.45,2.607c0.316,0.68,0.84,1.689,1.032,2.371c0.2,0.71-0.034,1.604,0.313,2.302
			c0.471,0.945,1.662,1.125,2.15,2.038c0.425,0.794,0.235,2.282,0.079,3.104c-0.367,1.933-1.398,3.828-1.876,5.684
			c-0.621,2.413-2.344,4.626-3.721,6.729c-1.058,1.615-2.639,3.08-3.452,4.779c-0.625,1.305-0.621,3.12-0.997,4.5"/>
	</g>
	<g id="Layer_21">
		<path fill="none" stroke="#000000" stroke-width="0.25" stroke-miterlimit="10" d="M3843.5,1948.637
			c0.489,0.68,0.808,1.39,1.175,2.112c0.648,1.277-0.031,0.973,1.622,1.221c2.004,0.301,3.542,0.729,4.37,2.67
			c-1.6,0.882-2.929-0.209-4.474-0.145c-0.082,0.286-0.085,0.832,0,1.117c0.81,0.354,1.636,0.453,2.47,0.817
			c0.859,0.375,1.504,1.115,2.313,1.385c0.021,1.285,0.326,1.543,0.695,2.492c0.264,0.68,0.893,1.54,0.495,2.504
			c-0.977,2.371-3.168-1.821-4.312-2.495c-0.168,1.131,0.605,2.963,1.787,3.17c0.216,1.774-1.219,3.135,0.274,4.746
			c1.146,1.234,5.48,3.504,7.021,3.83c1.687,0.355,3.17,3.225,3.813,4.938c0.938,2.5,2.826-0.069,4.017-1.563
			c1.497-1.877,1.964-3.984,2.607-5.081c0.557-0.947,0.294-2.688,0.292-3.757c-0.003-2.947-1.389-4.855-2.146-7.609
			c-0.495-1.796-0.331-3.813-0.511-5.716c-0.146-1.56-0.735-2.557-1.346-3.965c-0.622-1.435-0.824-3.209-1.658-4.504
			c-1.359-2.113-2.631-4.044-3.839-6.334"/>
	</g>
	<g id="Layer_22">
		<path fill="none" stroke="#000000" stroke-width="0.25" stroke-miterlimit="10" d="M3852.5,1973.136
			c3.736-0.618,7.519,4.481,8.338,7.622c0.228,0.873,0.193,1.865,0.491,2.716c0.346,0.987,1.067,1.224,1.507,1.946
			c0.688,1.127,1.018,3.265,1.163,4.513c0.182,1.558,0.194,3.285,0.333,4.729c0.18,1.871,0.624,3.913,0.342,5.796
			c-0.276,1.844-1.155,3.226-2.004,4.68c-0.552,0.946-0.784,1.123-0.837,2.325c-0.041,0.921,0.278,2.117-0.372,2.808
			c-1.343,1.425-8.472,0.799-10.203,0.329c-0.594-0.161-2.222-0.788-2.604-1.292c-0.583-0.768-0.21-1.829-0.309-2.833
			c-0.119-1.221-0.632-3.78,0.525-4.813c0.737-0.658,1.981,0.028,2.607-1.029c0.551-0.93-0.367-1.395-0.649-2.161
			c-0.896-2.436,0.662-1.638,1.828-3.038c0.896-1.075,0.249-0.879-0.487-1.5c-0.841-0.709-1.521-0.69-1.881-2.097
			c-0.466-1.82,0.457-3.547,0.544-5.375c0.135-2.805,0.838-5.357,0.833-8.154c-0.002-1.221-0.194-2.638,0-3.846
			c0.25-1.547,0.449-1.163,1.834-1.658"/>
	</g>
</g>
<g id="seazones">
</g>
</svg>
